<mxfile host="app.diagrams.net" modified="2023-11-11T06:46:06.846Z" agent="Mozilla/5.0 (Macintosh; Intel Mac OS X 10_15_7) AppleWebKit/605.1.15 (KHTML, like Gecko) Version/15.4 Safari/605.1.15" etag="WPEl2tq8KgOOevk7mvBL" version="22.1.0" type="github">
  <diagram name="第 1 页" id="hmwn7suMaWniUF9dak7G">
    <mxGraphModel dx="1781" dy="647" grid="1" gridSize="10" guides="1" tooltips="1" connect="1" arrows="1" fold="1" page="1" pageScale="1" pageWidth="827" pageHeight="1169" math="0" shadow="0">
      <root>
        <mxCell id="0" />
        <mxCell id="1" parent="0" />
        <mxCell id="tbsNov7nKe4gF_IFTtlK-1" value="" style="shape=cube;whiteSpace=wrap;html=1;boundedLbl=1;backgroundOutline=1;darkOpacity=0.05;darkOpacity2=0.1;size=30;opacity=30;fillColor=#E6E6E6;fontStyle=1" vertex="1" parent="1">
          <mxGeometry x="140" y="140" width="160" height="110" as="geometry" />
        </mxCell>
        <mxCell id="tbsNov7nKe4gF_IFTtlK-2" value="" style="shape=cube;whiteSpace=wrap;html=1;boundedLbl=1;backgroundOutline=1;darkOpacity=0.05;darkOpacity2=0.1;size=30;opacity=30;fillColor=#E6E6E6;fontStyle=1" vertex="1" parent="1">
          <mxGeometry x="414" y="150" width="160" height="90" as="geometry" />
        </mxCell>
        <mxCell id="tbsNov7nKe4gF_IFTtlK-4" value="" style="shape=cube;whiteSpace=wrap;html=1;boundedLbl=1;backgroundOutline=1;darkOpacity=0.05;darkOpacity2=0.1;size=30;strokeColor=#919191;fillColor=#B3B3B3;opacity=50;fontStyle=1" vertex="1" parent="1">
          <mxGeometry x="200" y="140" width="50" height="110" as="geometry" />
        </mxCell>
        <mxCell id="tbsNov7nKe4gF_IFTtlK-10" value="" style="shape=cube;whiteSpace=wrap;html=1;boundedLbl=1;backgroundOutline=1;darkOpacity=0.05;darkOpacity2=0.1;size=30;fillColor=#B3B3B3;strokeColor=#919191;opacity=50;fontStyle=1" vertex="1" parent="1">
          <mxGeometry x="470" y="150" width="50" height="90" as="geometry" />
        </mxCell>
        <mxCell id="tbsNov7nKe4gF_IFTtlK-16" value="&lt;font style=&quot;font-size: 17px;&quot; face=&quot;Times New Roman&quot;&gt;输入特征映射组&lt;i&gt;X&lt;/i&gt;&lt;/font&gt;" style="text;html=1;strokeColor=none;fillColor=none;align=center;verticalAlign=middle;whiteSpace=wrap;rounded=0;fontStyle=1" vertex="1" parent="1">
          <mxGeometry x="255" y="290" width="145" height="30" as="geometry" />
        </mxCell>
        <mxCell id="tbsNov7nKe4gF_IFTtlK-34" value="" style="childLayout=tableLayout;recursiveResize=0;shadow=0;fillColor=none;fontFamily=Times New Roman;fontSize=16;" vertex="1" parent="1">
          <mxGeometry x="125" y="370" width="150" height="140" as="geometry" />
        </mxCell>
        <mxCell id="tbsNov7nKe4gF_IFTtlK-35" value="" style="shape=tableRow;horizontal=0;startSize=0;swimlaneHead=0;swimlaneBody=0;top=0;left=0;bottom=0;right=0;dropTarget=0;collapsible=0;recursiveResize=0;expand=0;fontStyle=0;fillColor=#f5f5f5;strokeColor=#666666;fontFamily=Times New Roman;fontSize=16;fontColor=#333333;" vertex="1" parent="tbsNov7nKe4gF_IFTtlK-34">
          <mxGeometry width="150" height="47" as="geometry" />
        </mxCell>
        <mxCell id="tbsNov7nKe4gF_IFTtlK-36" value="1" style="connectable=0;recursiveResize=0;strokeColor=#666666;fillColor=#929292;align=center;whiteSpace=wrap;html=1;fontFamily=Times New Roman;fontSize=16;fontColor=#333333;imageWidth=20;imageHeight=20;" vertex="1" parent="tbsNov7nKe4gF_IFTtlK-35">
          <mxGeometry width="50" height="47" as="geometry">
            <mxRectangle width="50" height="47" as="alternateBounds" />
          </mxGeometry>
        </mxCell>
        <mxCell id="tbsNov7nKe4gF_IFTtlK-37" value="1" style="connectable=0;recursiveResize=0;strokeColor=#666666;fillColor=#929292;align=center;whiteSpace=wrap;html=1;fontFamily=Times New Roman;fontSize=16;fontColor=#333333;" vertex="1" parent="tbsNov7nKe4gF_IFTtlK-35">
          <mxGeometry x="50" width="50" height="47" as="geometry">
            <mxRectangle width="50" height="47" as="alternateBounds" />
          </mxGeometry>
        </mxCell>
        <mxCell id="tbsNov7nKe4gF_IFTtlK-38" value="2" style="connectable=0;recursiveResize=0;strokeColor=#666666;fillColor=#aaaaaa;align=center;whiteSpace=wrap;html=1;fontFamily=Times New Roman;fontSize=16;fontColor=#333333;" vertex="1" parent="tbsNov7nKe4gF_IFTtlK-35">
          <mxGeometry x="100" width="50" height="47" as="geometry">
            <mxRectangle width="50" height="47" as="alternateBounds" />
          </mxGeometry>
        </mxCell>
        <mxCell id="tbsNov7nKe4gF_IFTtlK-39" style="shape=tableRow;horizontal=0;startSize=0;swimlaneHead=0;swimlaneBody=0;top=0;left=0;bottom=0;right=0;dropTarget=0;collapsible=0;recursiveResize=0;expand=0;fontStyle=0;fillColor=#f5f5f5;strokeColor=#666666;fontFamily=Times New Roman;fontSize=16;fontColor=#333333;" vertex="1" parent="tbsNov7nKe4gF_IFTtlK-34">
          <mxGeometry y="47" width="150" height="46" as="geometry" />
        </mxCell>
        <mxCell id="tbsNov7nKe4gF_IFTtlK-40" value="5" style="connectable=0;recursiveResize=0;strokeColor=#666666;fillColor=#929292;align=center;whiteSpace=wrap;html=1;fontFamily=Times New Roman;fontSize=16;fontColor=#333333;" vertex="1" parent="tbsNov7nKe4gF_IFTtlK-39">
          <mxGeometry width="50" height="46" as="geometry">
            <mxRectangle width="50" height="46" as="alternateBounds" />
          </mxGeometry>
        </mxCell>
        <mxCell id="tbsNov7nKe4gF_IFTtlK-41" value="6" style="connectable=0;recursiveResize=0;strokeColor=#666666;fillColor=#929292;align=center;whiteSpace=wrap;html=1;fontFamily=Times New Roman;fontSize=16;fontColor=#333333;" vertex="1" parent="tbsNov7nKe4gF_IFTtlK-39">
          <mxGeometry x="50" width="50" height="46" as="geometry">
            <mxRectangle width="50" height="46" as="alternateBounds" />
          </mxGeometry>
        </mxCell>
        <mxCell id="tbsNov7nKe4gF_IFTtlK-42" value="7" style="connectable=0;recursiveResize=0;strokeColor=#666666;fillColor=#aaaaaa;align=center;whiteSpace=wrap;html=1;fontFamily=Times New Roman;fontSize=16;fontColor=#333333;" vertex="1" parent="tbsNov7nKe4gF_IFTtlK-39">
          <mxGeometry x="100" width="50" height="46" as="geometry">
            <mxRectangle width="50" height="46" as="alternateBounds" />
          </mxGeometry>
        </mxCell>
        <mxCell id="tbsNov7nKe4gF_IFTtlK-43" style="shape=tableRow;horizontal=0;startSize=0;swimlaneHead=0;swimlaneBody=0;top=0;left=0;bottom=0;right=0;dropTarget=0;collapsible=0;recursiveResize=0;expand=0;fontStyle=0;fillColor=none;strokeColor=inherit;fontFamily=Times New Roman;fontSize=16;" vertex="1" parent="tbsNov7nKe4gF_IFTtlK-34">
          <mxGeometry y="93" width="150" height="47" as="geometry" />
        </mxCell>
        <mxCell id="tbsNov7nKe4gF_IFTtlK-44" value="3" style="connectable=0;recursiveResize=0;strokeColor=inherit;fillColor=none;align=center;whiteSpace=wrap;html=1;fontFamily=Times New Roman;fontSize=16;" vertex="1" parent="tbsNov7nKe4gF_IFTtlK-43">
          <mxGeometry width="50" height="47" as="geometry">
            <mxRectangle width="50" height="47" as="alternateBounds" />
          </mxGeometry>
        </mxCell>
        <mxCell id="tbsNov7nKe4gF_IFTtlK-45" value="2" style="connectable=0;recursiveResize=0;strokeColor=inherit;fillColor=none;align=center;whiteSpace=wrap;html=1;fontFamily=Times New Roman;fontSize=16;" vertex="1" parent="tbsNov7nKe4gF_IFTtlK-43">
          <mxGeometry x="50" width="50" height="47" as="geometry">
            <mxRectangle width="50" height="47" as="alternateBounds" />
          </mxGeometry>
        </mxCell>
        <mxCell id="tbsNov7nKe4gF_IFTtlK-46" value="1" style="connectable=0;recursiveResize=0;strokeColor=inherit;fillColor=none;align=center;whiteSpace=wrap;html=1;fontFamily=Times New Roman;fontSize=16;" vertex="1" parent="tbsNov7nKe4gF_IFTtlK-43">
          <mxGeometry x="100" width="50" height="47" as="geometry">
            <mxRectangle width="50" height="47" as="alternateBounds" />
          </mxGeometry>
        </mxCell>
        <mxCell id="tbsNov7nKe4gF_IFTtlK-64" value="4" style="connectable=0;recursiveResize=0;strokeColor=#666666;fillColor=#aaaaaa;align=center;whiteSpace=wrap;html=1;fontFamily=Times New Roman;fontSize=16;fontColor=#333333;" vertex="1" parent="1">
          <mxGeometry x="275" y="370" width="50" height="47" as="geometry">
            <mxRectangle width="50" height="47" as="alternateBounds" />
          </mxGeometry>
        </mxCell>
        <mxCell id="tbsNov7nKe4gF_IFTtlK-65" value="8" style="connectable=0;recursiveResize=0;strokeColor=#666666;fillColor=#aaaaaa;align=center;whiteSpace=wrap;html=1;fontFamily=Times New Roman;fontSize=16;fontColor=#333333;" vertex="1" parent="1">
          <mxGeometry x="275" y="417" width="50" height="46" as="geometry">
            <mxRectangle width="50" height="46" as="alternateBounds" />
          </mxGeometry>
        </mxCell>
        <mxCell id="tbsNov7nKe4gF_IFTtlK-66" value="0" style="connectable=0;recursiveResize=0;strokeColor=inherit;fillColor=none;align=center;whiteSpace=wrap;html=1;fontFamily=Times New Roman;fontSize=16;" vertex="1" parent="1">
          <mxGeometry x="275" y="463" width="50" height="47" as="geometry">
            <mxRectangle width="50" height="47" as="alternateBounds" />
          </mxGeometry>
        </mxCell>
        <mxCell id="tbsNov7nKe4gF_IFTtlK-67" style="shape=tableRow;horizontal=0;startSize=0;swimlaneHead=0;swimlaneBody=0;top=0;left=0;bottom=0;right=0;dropTarget=0;collapsible=0;recursiveResize=0;expand=0;fontStyle=0;fillColor=none;strokeColor=inherit;fontFamily=Times New Roman;fontSize=16;" vertex="1" parent="1">
          <mxGeometry x="125" y="510" width="150" height="47" as="geometry" />
        </mxCell>
        <mxCell id="tbsNov7nKe4gF_IFTtlK-68" value="1" style="connectable=0;recursiveResize=0;strokeColor=inherit;fillColor=none;align=center;whiteSpace=wrap;html=1;fontFamily=Times New Roman;fontSize=16;" vertex="1" parent="tbsNov7nKe4gF_IFTtlK-67">
          <mxGeometry width="50" height="47" as="geometry">
            <mxRectangle width="50" height="47" as="alternateBounds" />
          </mxGeometry>
        </mxCell>
        <mxCell id="tbsNov7nKe4gF_IFTtlK-69" value="2" style="connectable=0;recursiveResize=0;strokeColor=inherit;fillColor=none;align=center;whiteSpace=wrap;html=1;fontFamily=Times New Roman;fontSize=16;" vertex="1" parent="tbsNov7nKe4gF_IFTtlK-67">
          <mxGeometry x="50" width="50" height="47" as="geometry">
            <mxRectangle width="50" height="47" as="alternateBounds" />
          </mxGeometry>
        </mxCell>
        <mxCell id="tbsNov7nKe4gF_IFTtlK-70" value="3" style="connectable=0;recursiveResize=0;strokeColor=inherit;fillColor=none;align=center;whiteSpace=wrap;html=1;fontFamily=Times New Roman;fontSize=16;" vertex="1" parent="tbsNov7nKe4gF_IFTtlK-67">
          <mxGeometry x="100" width="50" height="47" as="geometry">
            <mxRectangle width="50" height="47" as="alternateBounds" />
          </mxGeometry>
        </mxCell>
        <mxCell id="tbsNov7nKe4gF_IFTtlK-71" value="4" style="connectable=0;recursiveResize=0;strokeColor=inherit;fillColor=none;align=center;whiteSpace=wrap;html=1;fontFamily=Times New Roman;fontSize=16;" vertex="1" parent="1">
          <mxGeometry x="275" y="510" width="50" height="47" as="geometry">
            <mxRectangle width="50" height="47" as="alternateBounds" />
          </mxGeometry>
        </mxCell>
        <mxCell id="tbsNov7nKe4gF_IFTtlK-72" value="6" style="connectable=0;recursiveResize=0;strokeColor=#666666;fillColor=#929292;align=center;whiteSpace=wrap;html=1;fontFamily=Times New Roman;fontSize=16;fontColor=#333333;" vertex="1" parent="1">
          <mxGeometry x="444" y="410" width="50" height="47" as="geometry">
            <mxRectangle width="50" height="47" as="alternateBounds" />
          </mxGeometry>
        </mxCell>
        <mxCell id="tbsNov7nKe4gF_IFTtlK-73" value="8" style="connectable=0;recursiveResize=0;strokeColor=#666666;fillColor=#aaaaaa;align=center;whiteSpace=wrap;html=1;fontFamily=Times New Roman;fontSize=16;fontColor=#333333;" vertex="1" parent="1">
          <mxGeometry x="494" y="410" width="50" height="47" as="geometry">
            <mxRectangle width="50" height="47" as="alternateBounds" />
          </mxGeometry>
        </mxCell>
        <mxCell id="tbsNov7nKe4gF_IFTtlK-74" value="3" style="connectable=0;recursiveResize=0;strokeColor=default;fillColor=none;align=center;whiteSpace=wrap;html=1;fontFamily=Times New Roman;fontSize=16;fontColor=default;shadow=0;" vertex="1" parent="1">
          <mxGeometry x="444" y="457" width="50" height="46" as="geometry">
            <mxRectangle width="50" height="46" as="alternateBounds" />
          </mxGeometry>
        </mxCell>
        <mxCell id="tbsNov7nKe4gF_IFTtlK-75" value="4" style="connectable=0;recursiveResize=0;strokeColor=default;fillColor=none;align=center;whiteSpace=wrap;html=1;fontFamily=Times New Roman;fontSize=16;fontColor=default;shadow=0;" vertex="1" parent="1">
          <mxGeometry x="494" y="457" width="50" height="46" as="geometry">
            <mxRectangle width="50" height="46" as="alternateBounds" />
          </mxGeometry>
        </mxCell>
        <mxCell id="tbsNov7nKe4gF_IFTtlK-76" value="" style="shape=flexArrow;endArrow=classic;html=1;rounded=0;" edge="1" parent="1">
          <mxGeometry width="50" height="50" relative="1" as="geometry">
            <mxPoint x="230" y="260" as="sourcePoint" />
            <mxPoint x="230" y="360" as="targetPoint" />
          </mxGeometry>
        </mxCell>
        <mxCell id="tbsNov7nKe4gF_IFTtlK-77" value="" style="shape=flexArrow;endArrow=classic;html=1;rounded=0;" edge="1" parent="1">
          <mxGeometry width="50" height="50" relative="1" as="geometry">
            <mxPoint x="340" y="460" as="sourcePoint" />
            <mxPoint x="430" y="460" as="targetPoint" />
          </mxGeometry>
        </mxCell>
        <mxCell id="tbsNov7nKe4gF_IFTtlK-78" value="" style="shape=flexArrow;endArrow=classic;html=1;rounded=0;" edge="1" parent="1">
          <mxGeometry width="50" height="50" relative="1" as="geometry">
            <mxPoint x="490" y="390" as="sourcePoint" />
            <mxPoint x="490" y="250" as="targetPoint" />
          </mxGeometry>
        </mxCell>
        <mxCell id="tbsNov7nKe4gF_IFTtlK-79" value="&lt;font face=&quot;Times New Roman&quot;&gt;&lt;span style=&quot;font-size: 17px;&quot;&gt;原始特征图&lt;/span&gt;&lt;/font&gt;" style="text;html=1;strokeColor=none;fillColor=none;align=center;verticalAlign=middle;whiteSpace=wrap;rounded=0;fontStyle=1" vertex="1" parent="1">
          <mxGeometry x="-30" y="440" width="145" height="30" as="geometry" />
        </mxCell>
        <mxCell id="tbsNov7nKe4gF_IFTtlK-80" value="&lt;font style=&quot;font-size: 17px;&quot; face=&quot;Times New Roman&quot;&gt;输入特征映射&lt;i&gt;X&lt;sup&gt;d&lt;/sup&gt;&lt;/i&gt;&lt;/font&gt;" style="text;html=1;strokeColor=none;fillColor=none;align=center;verticalAlign=middle;whiteSpace=wrap;rounded=0;fontStyle=1" vertex="1" parent="1">
          <mxGeometry x="152.5" y="570" width="145" height="30" as="geometry" />
        </mxCell>
        <mxCell id="tbsNov7nKe4gF_IFTtlK-81" value="&lt;font face=&quot;Times New Roman&quot;&gt;&lt;span style=&quot;font-size: 17px;&quot;&gt;最大池化&lt;/span&gt;&lt;/font&gt;" style="text;html=1;strokeColor=none;fillColor=none;align=center;verticalAlign=middle;whiteSpace=wrap;rounded=0;fontStyle=1" vertex="1" parent="1">
          <mxGeometry x="330" y="410" width="100" height="30" as="geometry" />
        </mxCell>
        <mxCell id="tbsNov7nKe4gF_IFTtlK-82" value="&lt;font style=&quot;font-size: 17px;&quot; face=&quot;Times New Roman&quot;&gt;输出特征映射&lt;i&gt;Y&lt;sup&gt;d&lt;/sup&gt;&lt;/i&gt;&lt;/font&gt;" style="text;html=1;strokeColor=none;fillColor=none;align=center;verticalAlign=middle;whiteSpace=wrap;rounded=0;fontStyle=1" vertex="1" parent="1">
          <mxGeometry x="421.5" y="570" width="145" height="30" as="geometry" />
        </mxCell>
        <mxCell id="tbsNov7nKe4gF_IFTtlK-83" value="&lt;font face=&quot;Times New Roman&quot;&gt;&lt;span style=&quot;font-size: 17px;&quot;&gt;目标特征图&lt;/span&gt;&lt;/font&gt;" style="text;html=1;strokeColor=none;fillColor=none;align=center;verticalAlign=middle;whiteSpace=wrap;rounded=0;fontStyle=1" vertex="1" parent="1">
          <mxGeometry x="560" y="440" width="145" height="30" as="geometry" />
        </mxCell>
        <mxCell id="tbsNov7nKe4gF_IFTtlK-84" value="&lt;font style=&quot;font-size: 17px;&quot; face=&quot;Times New Roman&quot;&gt;输出特征映射组&lt;i&gt;Y&lt;/i&gt;&lt;/font&gt;" style="text;html=1;strokeColor=none;fillColor=none;align=center;verticalAlign=middle;whiteSpace=wrap;rounded=0;fontStyle=1" vertex="1" parent="1">
          <mxGeometry x="520" y="290" width="160" height="30" as="geometry" />
        </mxCell>
      </root>
    </mxGraphModel>
  </diagram>
</mxfile>
